<?xml version="1.0" encoding="UTF-8"?>
<svg id="Layer_1" xmlns="http://www.w3.org/2000/svg" version="1.1" viewBox="0 0 1920 628">
  <!-- Generator: Adobe Illustrator 30.3.0, SVG Export Plug-In . SVG Version: 2.1.3 Build 182)  -->
  <defs>
    <style>
      .st0 {
        fill: #d9166f;
      }

      .st1 {
        fill: #f7941d;
      }
    </style>
  </defs>
  <g>
    <text/>
    <path class="st0" d="M191.2,364.8c-10.8,15-29.1,23-48.3,23-31.4,0-60-15-60-67.9v-142.9h-14.1C24.4,176.9,0,152,0,116.4S30.9,48.5,74,48.5s60.9,11.7,92.3,25.3c23,9.8,51.1,21.1,75.4,30.5C249.3,38.6,276.5.2,331.3.2s67.5,23,67.5,62.3-30,70.3-77.8,70.3-24.4-1.4-38.4-4.7v72.6c6.1-13.1,24.8-35.6,64.7-35.6s72.2,34.7,72.2,76.4v110.1c0,14.1,8,21.6,16.9,21.6s10.8-2.8,14.5-7.5l4.2,4.7c-8,10.3-22.5,17.3-38.4,17.3s-39.4-11.7-39.4-43.6v-113.4c0-34.7-10.8-54.8-40.3-54.8s-54.4,29.5-54.4,59.1v141h26.2v7.5h-95.1v-7.5h26.7v-223c0-13.1,0-23.9.5-36.1-25.3-8.4-55.8-19.7-80.6-29.1-27.6-10.3-52-23.4-87.6-23.4S8.4,85,8.4,117.8s22.5,51.5,51.1,51.5,52.5-28.6,56.7-53.4l1.9-10.8h7v64.2h57.6v7.5h-57.6v154.6c0,29.1,15.9,41.7,32.8,41.7s21.1-4.7,29-12.7l4.2,4.2ZM282.6,117.8c13.1,3.7,26.2,7,38.4,7,43.6,0,69.8-24.4,69.8-60.5s-23.9-49.2-49.7-49.2c-45,0-58.6,35.1-58.6,82v20.6ZM660.6,223.7c0,44-40.8,63.3-82.9,63.3s-34.2-3.3-49.2-9.4c.9,69.4,34.2,97.5,71.7,97.5s40.8-7.5,60.4-26.3l4.2,5.6c-19.2,20.6-44.5,33.3-82,33.3s-99.3-38-99.3-108.2,36.1-114.3,100.3-114.3,76.8,24.8,76.8,58.6M528.5,270.6c13.6,3.7,27.2,5.6,38.4,5.6,29.1,0,50.1-13.1,50.1-51.5s-15.5-52-35.1-52-52,31.9-53.4,97.9M896.8,169.4c-14.5-13.6-28.1-37-28.1-67,0-47.8,30.9-90,88.1-90s93.3,46.4,93.3,104v84.4c6.1-13.1,24.8-35.6,64.7-35.6s72.2,34.7,72.2,76.4v110.1c0,14.1,8,21.6,16.9,21.6s10.8-2.8,14.5-7.5l4.2,4.7c-8,10.3-22.5,17.3-38.4,17.3s-39.4-11.7-39.4-43.6v-113.4c0-34.7-10.8-54.8-40.3-54.8s-54.4,29.5-54.4,59.1v141h26.2v7.5h-95.1v-7.5h26.7V104.7c0-49.7-16.9-80.1-59-80.1s-72.6,35.6-72.6,78.7,15.5,56.2,35.1,70.8c15.9,11.7,25.3,23,25.3,37.5s-11.7,27.2-24.8,27.2-19.7-5.6-22.5-9.4l30.9-33.3c-8.4-9.8-24.4-21.6-49.2-21.6s-49.2,14.5-49.2,35.6,18.3,34.7,52,45.4c47.8,15.5,70.8,34.7,70.8,66.1s-35.1,66.1-83.4,66.1-72.2-15.5-72.2-44.5,14.1-28.6,25.8-28.6,18.7,5.6,21.6,9.4l-31.9,34.2c13.6,13.6,34.7,19.7,53,19.7,29.5,0,54.8-15,54.8-38.4s-14.5-32.8-57.6-47.3c-39.4-13.1-63.3-30-63.3-63.3s33.7-63.7,76.9-63.7,21.6,1.4,28.6,4.2M1317.5,387.7c-45,0-65.6-24.4-65.6-57.2,0-54.4,68.9-64.7,105-64.7s15,.5,20.1.5v-50.6c0-29-22-43.1-45.9-43.1s-35.6,8-45,17.8l26.7,45c-2.3,5.2-11.7,9.8-22,9.8s-28.1-8.4-28.1-28.6,29-51.5,75-51.5c68,0,81.5,34.2,81.5,67v119.5c0,14.1,8,21.6,16.9,21.6s10.8-2.8,14.5-7.5l4.2,4.7c-7.5,10.3-22.5,17.3-38.4,17.3s-30.5-6.6-36.1-23.9c-11.7,11.3-29.1,23.9-62.8,23.9M1377,273.4c-37.9,1.9-80.1,5.2-80.1,54.4s20.6,45.9,38.9,45.9,37-11.2,41.2-18.7v-81.5ZM1541.9,335.7c0,26.7,13.1,37.5,26.3,37.5s16.9-4.2,23.4-12.7l3.7,4.2c-9.8,15-26.7,23-44,23-26.7,0-51.5-14.5-51.5-63.7V50.3h-26.7v-7.5h68.9v292.9ZM1689,387.7c-45,0-65.6-24.4-65.6-57.2,0-54.4,68.9-64.7,105-64.7s15,.5,20.1.5v-50.6c0-29-22-43.1-45.9-43.1s-35.6,8-45,17.8l26.7,45c-2.4,5.2-11.7,9.8-22,9.8s-28.1-8.4-28.1-28.6,29.1-51.5,75-51.5c67.9,0,81.5,34.2,81.5,67v119.5c0,14.1,8,21.6,16.9,21.6s10.8-2.8,14.5-7.5l4.2,4.7c-7.5,10.3-22.5,17.3-38.4,17.3s-30.4-6.6-36.1-23.9c-11.7,11.3-29,23.9-62.8,23.9M1748.5,273.4c-37.9,1.9-80.1,5.2-80.1,54.4s20.6,45.9,38.9,45.9,37-11.2,41.2-18.7v-81.5ZM1866.6,361.5c0-14.5,10.8-26.2,26.7-26.2s26.7,11.7,26.7,26.2-10.8,26.2-26.7,26.2-26.7-11.7-26.7-26.2"/>
    <g>
      <path class="st1" d="M97,597.1c3.2,4.8,7.3,8.4,12.3,10.6,5,2.3,10.1,3.4,15.4,3.4s6-.5,9.1-1.4c3.1-.9,5.9-2.3,8.4-4.2,2.5-1.8,4.6-4.1,6.2-6.8,1.6-2.7,2.4-5.9,2.4-9.4s-1.6-8.9-4.8-11.6c-3.2-2.6-7.2-4.9-11.9-6.7-4.7-1.8-9.9-3.5-15.5-5.2-5.6-1.7-10.8-4-15.5-6.9-4.7-3-8.7-6.9-11.9-11.9-3.2-5-4.8-11.7-4.8-20.2s.8-7.9,2.5-12.2c1.7-4.3,4.3-8.3,7.9-11.8,3.6-3.6,8.2-6.6,13.8-9,5.6-2.4,12.4-3.6,20.2-3.6s14,1,20.5,3c6.5,2,12.3,6,17.2,12l-14.4,13.1c-2.2-3.4-5.4-6.2-9.4-8.3-4.1-2.1-8.7-3.1-13.9-3.1s-9,.6-12.3,1.9c-3.3,1.3-5.9,3-7.9,5-2,2-3.4,4.2-4.2,6.6-.8,2.3-1.2,4.5-1.2,6.5,0,5.5,1.6,9.8,4.8,12.8,3.2,3,7.2,5.4,11.9,7.2,4.7,1.8,9.9,3.5,15.5,5,5.6,1.5,10.8,3.5,15.5,6.2,4.7,2.7,8.7,6.2,11.9,10.7,3.2,4.5,4.8,10.7,4.8,18.6s-1.2,12-3.6,17c-2.4,5.1-5.6,9.3-9.7,12.8-4.1,3.5-8.9,6.1-14.4,7.9-5.5,1.8-11.5,2.8-17.7,2.8s-16.3-1.5-23.8-4.4c-7.5-3-13.5-7.5-17.9-13.7l14.6-12.6Z"/>
      <path class="st1" d="M291.5,521.9c-3.7-4.8-8.4-8.5-14-11.1-5.7-2.6-11.5-3.9-17.6-3.9s-14.1,1.4-20.1,4.2c-6,2.8-11.1,6.6-15.3,11.4s-7.6,10.4-9.9,16.9c-2.3,6.5-3.5,13.4-3.5,20.8s1.1,13.4,3.3,19.6c2.2,6.2,5.4,11.6,9.6,16.3,4.2,4.7,9.3,8.4,15.3,11.1,6,2.7,12.9,4.1,20.5,4.1s14.1-1.5,19.8-4.6c5.7-3.1,10.5-7.4,14.4-12.9l15,11.3c-1,1.4-2.7,3.3-5.2,5.8-2.5,2.5-5.7,5.1-9.8,7.6-4.1,2.5-9,4.7-14.7,6.7-5.7,1.9-12.4,2.9-19.9,2.9s-19.7-2-28-5.9c-8.3-3.9-15.4-9.1-21.3-15.5-5.9-6.4-10.3-13.6-13.4-21.7-3.1-8.1-4.6-16.2-4.6-24.5s1.7-19.4,5-28c3.3-8.6,8-16,14-22.2,6-6.2,13.2-11.1,21.5-14.5,8.4-3.4,17.6-5.2,27.7-5.2s17.1,1.7,25.4,5c8.3,3.3,15.1,8.4,20.4,15.3l-14.8,11.3Z"/>
      <path class="st1" d="M334.9,493.6h17.7v54.4h67.8v-54.4h17.7v130.9h-17.7v-59.9h-67.8v59.9h-17.7v-130.9Z"/>
      <path class="st1" d="M536.4,627.8c-10,0-19.2-1.8-27.5-5.3-8.4-3.5-15.6-8.3-21.5-14.5-6-6.2-10.7-13.4-14-21.8-3.4-8.4-5.1-17.4-5.1-27.2s1.7-18.8,5.1-27.2c3.4-8.4,8.1-15.7,14-21.8,6-6.2,13.2-11,21.5-14.5,8.4-3.5,17.6-5.3,27.5-5.3s19.2,1.8,27.5,5.3c8.4,3.5,15.6,8.4,21.5,14.5,6,6.2,10.7,13.4,14,21.8,3.4,8.4,5.1,17.4,5.1,27.2s-1.7,18.8-5.1,27.2c-3.4,8.4-8.1,15.7-14,21.8-6,6.2-13.2,11-21.5,14.5-8.4,3.5-17.6,5.3-27.5,5.3ZM536.4,611.2c7.5,0,14.3-1.4,20.3-4.2,6-2.8,11.2-6.5,15.5-11.2,4.3-4.7,7.6-10.2,10-16.5,2.3-6.3,3.5-13.1,3.5-20.2s-1.2-13.9-3.5-20.2c-2.3-6.3-5.7-11.9-10-16.5-4.3-4.7-9.5-8.4-15.5-11.2-6-2.8-12.8-4.2-20.3-4.2s-14.3,1.4-20.3,4.2c-6,2.8-11.2,6.5-15.5,11.2-4.3,4.7-7.6,10.2-10,16.5-2.3,6.3-3.5,13.1-3.5,20.2s1.2,13.9,3.5,20.2c2.3,6.3,5.7,11.9,10,16.5,4.3,4.7,9.5,8.4,15.5,11.2,6,2.8,12.8,4.2,20.3,4.2Z"/>
      <path class="st1" d="M694.7,627.8c-10,0-19.2-1.8-27.5-5.3-8.4-3.5-15.6-8.3-21.5-14.5-6-6.2-10.7-13.4-14-21.8-3.4-8.4-5.1-17.4-5.1-27.2s1.7-18.8,5.1-27.2c3.4-8.4,8.1-15.7,14-21.8,6-6.2,13.2-11,21.5-14.5,8.4-3.5,17.6-5.3,27.5-5.3s19.2,1.8,27.5,5.3c8.4,3.5,15.6,8.4,21.5,14.5,6,6.2,10.7,13.4,14,21.8,3.4,8.4,5.1,17.4,5.1,27.2s-1.7,18.8-5.1,27.2c-3.4,8.4-8.1,15.7-14,21.8-6,6.2-13.2,11-21.5,14.5-8.4,3.5-17.6,5.3-27.5,5.3ZM694.7,611.2c7.5,0,14.3-1.4,20.3-4.2,6-2.8,11.2-6.5,15.5-11.2,4.3-4.7,7.6-10.2,10-16.5,2.3-6.3,3.5-13.1,3.5-20.2s-1.2-13.9-3.5-20.2c-2.3-6.3-5.7-11.9-10-16.5-4.3-4.7-9.5-8.4-15.5-11.2-6-2.8-12.8-4.2-20.3-4.2s-14.3,1.4-20.3,4.2c-6,2.8-11.2,6.5-15.5,11.2-4.3,4.7-7.6,10.2-10,16.5-2.3,6.3-3.5,13.1-3.5,20.2s1.2,13.9,3.5,20.2c2.3,6.3,5.7,11.9,10,16.5,4.3,4.7,9.5,8.4,15.5,11.2,6,2.8,12.8,4.2,20.3,4.2Z"/>
      <path class="st1" d="M792.8,493.6h17.7v114.2h60.1v16.6h-77.8v-130.9Z"/>
      <path class="st1" d="M1009.1,627.8c-10,0-19.2-1.8-27.5-5.3-8.4-3.5-15.6-8.3-21.5-14.5-6-6.2-10.7-13.4-14-21.8-3.4-8.4-5.1-17.4-5.1-27.2s1.7-18.8,5.1-27.2c3.4-8.4,8.1-15.7,14-21.8,6-6.2,13.2-11,21.5-14.5,8.4-3.5,17.6-5.3,27.5-5.3s19.2,1.8,27.5,5.3c8.4,3.5,15.6,8.4,21.5,14.5,6,6.2,10.7,13.4,14,21.8,3.4,8.4,5.1,17.4,5.1,27.2s-1.7,18.8-5.1,27.2c-3.4,8.4-8.1,15.7-14,21.8-6,6.2-13.2,11-21.5,14.5-8.4,3.5-17.6,5.3-27.5,5.3ZM1009.1,611.2c7.5,0,14.3-1.4,20.3-4.2,6-2.8,11.2-6.5,15.5-11.2,4.3-4.7,7.6-10.2,10-16.5,2.3-6.3,3.5-13.1,3.5-20.2s-1.2-13.9-3.5-20.2c-2.3-6.3-5.7-11.9-10-16.5-4.3-4.7-9.5-8.4-15.5-11.2-6-2.8-12.8-4.2-20.3-4.2s-14.3,1.4-20.3,4.2c-6,2.8-11.2,6.5-15.5,11.2-4.3,4.7-7.6,10.2-10,16.5-2.3,6.3-3.5,13.1-3.5,20.2s1.2,13.9,3.5,20.2c2.3,6.3,5.7,11.9,10,16.5,4.3,4.7,9.5,8.4,15.5,11.2,6,2.8,12.8,4.2,20.3,4.2Z"/>
      <path class="st1" d="M1107.3,493.6h82.3v16.6h-64.5v41h60.1v16.6h-60.1v56.6h-17.7v-130.9Z"/>
      <path class="st1" d="M1304.6,568.6l-49.5-75.1h22.7l35.7,57.5,36.8-57.5h21.6l-49.5,75.1v55.8h-17.7v-55.8Z"/>
      <path class="st1" d="M1451.3,627.8c-10,0-19.2-1.8-27.5-5.3-8.4-3.5-15.6-8.3-21.5-14.5-6-6.2-10.7-13.4-14-21.8-3.4-8.4-5.1-17.4-5.1-27.2s1.7-18.8,5.1-27.2c3.4-8.4,8.1-15.7,14-21.8,6-6.2,13.2-11,21.5-14.5,8.4-3.5,17.6-5.3,27.5-5.3s19.2,1.8,27.5,5.3c8.4,3.5,15.6,8.4,21.5,14.5,6,6.2,10.7,13.4,14,21.8,3.4,8.4,5.1,17.4,5.1,27.2s-1.7,18.8-5.1,27.2c-3.4,8.4-8.1,15.7-14,21.8-6,6.2-13.2,11-21.5,14.5-8.4,3.5-17.6,5.3-27.5,5.3ZM1451.3,611.2c7.5,0,14.3-1.4,20.3-4.2,6-2.8,11.2-6.5,15.5-11.2,4.3-4.7,7.6-10.2,10-16.5,2.3-6.3,3.5-13.1,3.5-20.2s-1.2-13.9-3.5-20.2c-2.3-6.3-5.7-11.9-10-16.5-4.3-4.7-9.5-8.4-15.5-11.2-6-2.8-12.8-4.2-20.3-4.2s-14.3,1.4-20.3,4.2c-6,2.8-11.2,6.5-15.5,11.2-4.3,4.7-7.6,10.2-10,16.5-2.3,6.3-3.5,13.1-3.5,20.2s1.2,13.9,3.5,20.2c2.3,6.3,5.7,11.9,10,16.5,4.3,4.7,9.5,8.4,15.5,11.2,6,2.8,12.8,4.2,20.3,4.2Z"/>
      <path class="st1" d="M1661,551.3v64.5c-3.2,2-6.8,3.7-10.9,5.2-4.1,1.5-8.3,2.7-12.7,3.8-4.4,1-8.8,1.8-13.3,2.3-4.5.5-8.7.7-12.7.7-11.1,0-21-1.8-29.7-5.5-8.7-3.7-16-8.7-22-15-6-6.3-10.5-13.6-13.7-21.9-3.1-8.3-4.7-17.1-4.7-26.3s1.7-18.8,5.1-27.2c3.4-8.4,8.1-15.7,14-21.8,6-6.2,13.2-11,21.5-14.5,8.4-3.5,17.6-5.3,27.5-5.3s21.9,1.5,29.6,4.5c7.6,3,14,7.2,19.2,12.5l-12.6,13.5c-5.4-5.2-11.2-8.8-17.2-10.8-6-2-12.4-3.1-19-3.1s-14.3,1.4-20.3,4.2c-6,2.8-11.2,6.5-15.5,11.2-4.3,4.7-7.6,10.2-10,16.5-2.3,6.3-3.5,13.1-3.5,20.2s1.3,14.3,3.9,20.6c2.6,6.3,6.2,11.9,10.7,16.5,4.6,4.7,9.9,8.4,16.1,11,6.2,2.7,12.9,4,20.2,4s12.2-.6,17.8-1.8c5.6-1.2,10.4-2.9,14.3-5.1v-36.4h-29v-16.6h46.8Z"/>
      <path class="st1" d="M1738.8,493.6h16.1l56,130.9h-20.7l-13.1-32.4h-62.3l-12.9,32.4h-20.7l57.7-130.9ZM1770.6,576.6l-24.4-60.1h-.4l-24.8,60.1h49.5Z"/>
    </g>
  </g>
  <g>
    <text/>
    <path class="st0" d="M190.2,364.8c-10.8,15-29.1,23-48.3,23-31.4,0-60-15-60-67.9v-142.9h-14.1C23.4,176.9-1,152-1,116.4S29.9,48.5,73,48.5s60.9,11.7,92.3,25.3c23,9.8,51.1,21.1,75.4,30.5C248.3,38.6,275.5.2,330.3.2s67.5,23,67.5,62.3-30,70.3-77.8,70.3-24.4-1.4-38.4-4.7v72.6c6.1-13.1,24.8-35.6,64.7-35.6s72.2,34.7,72.2,76.4v110.1c0,14.1,8,21.6,16.9,21.6s10.8-2.8,14.5-7.5l4.2,4.7c-8,10.3-22.5,17.3-38.4,17.3s-39.4-11.7-39.4-43.6v-113.4c0-34.7-10.8-54.8-40.3-54.8s-54.4,29.5-54.4,59.1v141h26.2v7.5h-95.1v-7.5h26.7v-223c0-13.1,0-23.9.5-36.1-25.3-8.4-55.8-19.7-80.6-29.1-27.6-10.3-52-23.4-87.6-23.4S7.4,85,7.4,117.8s22.5,51.5,51.1,51.5,52.5-28.6,56.7-53.4l1.9-10.8h7v64.2h57.6v7.5h-57.6v154.6c0,29.1,15.9,41.7,32.8,41.7s21.1-4.7,29-12.7l4.2,4.2ZM281.6,117.8c13.1,3.7,26.2,7,38.4,7,43.6,0,69.8-24.4,69.8-60.5s-23.9-49.2-49.7-49.2c-45,0-58.6,35.1-58.6,82v20.6ZM659.6,223.7c0,44-40.8,63.3-82.9,63.3s-34.2-3.3-49.2-9.4c.9,69.4,34.2,97.5,71.7,97.5s40.8-7.5,60.4-26.3l4.2,5.6c-19.2,20.6-44.5,33.3-82,33.3s-99.3-38-99.3-108.2,36.1-114.3,100.3-114.3,76.8,24.8,76.8,58.6M527.5,270.6c13.6,3.7,27.2,5.6,38.4,5.6,29.1,0,50.1-13.1,50.1-51.5s-15.5-52-35.1-52-52,31.9-53.4,97.9M895.8,169.4c-14.5-13.6-28.1-37-28.1-67,0-47.8,30.9-90,88.1-90s93.3,46.4,93.3,104v84.4c6.1-13.1,24.8-35.6,64.7-35.6s72.2,34.7,72.2,76.4v110.1c0,14.1,8,21.6,16.9,21.6s10.8-2.8,14.5-7.5l4.2,4.7c-8,10.3-22.5,17.3-38.4,17.3s-39.4-11.7-39.4-43.6v-113.4c0-34.7-10.8-54.8-40.3-54.8s-54.4,29.5-54.4,59.1v141h26.2v7.5h-95.1v-7.5h26.7V104.7c0-49.7-16.9-80.1-59-80.1s-72.6,35.6-72.6,78.7,15.5,56.2,35.1,70.8c15.9,11.7,25.3,23,25.3,37.5s-11.7,27.2-24.8,27.2-19.7-5.6-22.5-9.4l30.9-33.3c-8.4-9.8-24.4-21.6-49.2-21.6s-49.2,14.5-49.2,35.6,18.3,34.7,52,45.4c47.8,15.5,70.8,34.7,70.8,66.1s-35.1,66.1-83.4,66.1-72.2-15.5-72.2-44.5,14.1-28.6,25.8-28.6,18.7,5.6,21.6,9.4l-31.9,34.2c13.6,13.6,34.7,19.7,53,19.7,29.5,0,54.8-15,54.8-38.4s-14.5-32.8-57.6-47.3c-39.4-13.1-63.3-30-63.3-63.3s33.7-63.7,76.9-63.7,21.6,1.4,28.6,4.2M1316.5,387.7c-45,0-65.6-24.4-65.6-57.2,0-54.4,68.9-64.7,105-64.7s15,.5,20.1.5v-50.6c0-29-22-43.1-45.9-43.1s-35.6,8-45,17.8l26.7,45c-2.3,5.2-11.7,9.8-22,9.8s-28.1-8.4-28.1-28.6,29-51.5,75-51.5c68,0,81.5,34.2,81.5,67v119.5c0,14.1,8,21.6,16.9,21.6s10.8-2.8,14.5-7.5l4.2,4.7c-7.5,10.3-22.5,17.3-38.4,17.3s-30.5-6.6-36.1-23.9c-11.7,11.3-29.1,23.9-62.8,23.9M1376,273.4c-37.9,1.9-80.1,5.2-80.1,54.4s20.6,45.9,38.9,45.9,37-11.2,41.2-18.7v-81.5ZM1540.9,335.7c0,26.7,13.1,37.5,26.3,37.5s16.9-4.2,23.4-12.7l3.7,4.2c-9.8,15-26.7,23-44,23-26.7,0-51.5-14.5-51.5-63.7V50.3h-26.7v-7.5h68.9v292.9ZM1688,387.7c-45,0-65.6-24.4-65.6-57.2,0-54.4,68.9-64.7,105-64.7s15,.5,20.1.5v-50.6c0-29-22-43.1-45.9-43.1s-35.6,8-45,17.8l26.7,45c-2.4,5.2-11.7,9.8-22,9.8s-28.1-8.4-28.1-28.6,29.1-51.5,75-51.5c67.9,0,81.5,34.2,81.5,67v119.5c0,14.1,8,21.6,16.9,21.6s10.8-2.8,14.5-7.5l4.2,4.7c-7.5,10.3-22.5,17.3-38.4,17.3s-30.4-6.6-36.1-23.9c-11.7,11.3-29,23.9-62.8,23.9M1747.5,273.4c-37.9,1.9-80.1,5.2-80.1,54.4s20.6,45.9,38.9,45.9,37-11.2,41.2-18.7v-81.5ZM1865.6,361.5c0-14.5,10.8-26.2,26.7-26.2s26.7,11.7,26.7,26.2-10.8,26.2-26.7,26.2-26.7-11.7-26.7-26.2"/>
    <g>
      <path class="st1" d="M96,597.1c3.2,4.8,7.3,8.4,12.3,10.6,5,2.3,10.1,3.4,15.4,3.4s6-.5,9.1-1.4c3.1-.9,5.9-2.3,8.4-4.2,2.5-1.8,4.6-4.1,6.2-6.8,1.6-2.7,2.4-5.9,2.4-9.4s-1.6-8.9-4.8-11.6c-3.2-2.6-7.2-4.9-11.9-6.7-4.7-1.8-9.9-3.5-15.5-5.2-5.6-1.7-10.8-4-15.5-6.9-4.7-3-8.7-6.9-11.9-11.9-3.2-5-4.8-11.7-4.8-20.2s.8-7.9,2.5-12.2c1.7-4.3,4.3-8.3,7.9-11.8,3.6-3.6,8.2-6.6,13.8-9,5.6-2.4,12.4-3.6,20.2-3.6s14,1,20.5,3c6.5,2,12.3,6,17.2,12l-14.4,13.1c-2.2-3.4-5.4-6.2-9.4-8.3-4.1-2.1-8.7-3.1-13.9-3.1s-9,.6-12.3,1.9c-3.3,1.3-5.9,3-7.9,5-2,2-3.4,4.2-4.2,6.6-.8,2.3-1.2,4.5-1.2,6.5,0,5.5,1.6,9.8,4.8,12.8,3.2,3,7.2,5.4,11.9,7.2,4.7,1.8,9.9,3.5,15.5,5,5.6,1.5,10.8,3.5,15.5,6.2,4.7,2.7,8.7,6.2,11.9,10.7,3.2,4.5,4.8,10.7,4.8,18.6s-1.2,12-3.6,17c-2.4,5.1-5.6,9.3-9.7,12.8-4.1,3.5-8.9,6.1-14.4,7.9-5.5,1.8-11.5,2.8-17.7,2.8s-16.3-1.5-23.8-4.4c-7.5-3-13.5-7.5-17.9-13.7l14.6-12.6Z"/>
      <path class="st1" d="M290.5,521.9c-3.7-4.8-8.4-8.5-14-11.1-5.7-2.6-11.5-3.9-17.6-3.9s-14.1,1.4-20.1,4.2c-6,2.8-11.1,6.6-15.3,11.4s-7.6,10.4-9.9,16.9c-2.3,6.5-3.5,13.4-3.5,20.8s1.1,13.4,3.3,19.6c2.2,6.2,5.4,11.6,9.6,16.3,4.2,4.7,9.3,8.4,15.3,11.1,6,2.7,12.9,4.1,20.5,4.1s14.1-1.5,19.8-4.6c5.7-3.1,10.5-7.4,14.4-12.9l15,11.3c-1,1.4-2.7,3.3-5.2,5.8-2.5,2.5-5.7,5.1-9.8,7.6-4.1,2.5-9,4.7-14.7,6.7-5.7,1.9-12.4,2.9-19.9,2.9s-19.7-2-28-5.9c-8.3-3.9-15.4-9.1-21.3-15.5-5.9-6.4-10.3-13.6-13.4-21.7-3.1-8.1-4.6-16.2-4.6-24.5s1.7-19.4,5-28c3.3-8.6,8-16,14-22.2,6-6.2,13.2-11.1,21.5-14.5,8.4-3.4,17.6-5.2,27.7-5.2s17.1,1.7,25.4,5c8.3,3.3,15.1,8.4,20.4,15.3l-14.8,11.3Z"/>
      <path class="st1" d="M333.9,493.6h17.7v54.4h67.8v-54.4h17.7v130.9h-17.7v-59.9h-67.8v59.9h-17.7v-130.9Z"/>
      <path class="st1" d="M535.4,627.8c-10,0-19.2-1.8-27.5-5.3-8.4-3.5-15.6-8.3-21.5-14.5-6-6.2-10.7-13.4-14-21.8-3.4-8.4-5.1-17.4-5.1-27.2s1.7-18.8,5.1-27.2c3.4-8.4,8.1-15.7,14-21.8,6-6.2,13.2-11,21.5-14.5,8.4-3.5,17.6-5.3,27.5-5.3s19.2,1.8,27.5,5.3c8.4,3.5,15.6,8.4,21.5,14.5,6,6.2,10.7,13.4,14,21.8,3.4,8.4,5.1,17.4,5.1,27.2s-1.7,18.8-5.1,27.2c-3.4,8.4-8.1,15.7-14,21.8-6,6.2-13.2,11-21.5,14.5-8.4,3.5-17.6,5.3-27.5,5.3ZM535.4,611.2c7.5,0,14.3-1.4,20.3-4.2,6-2.8,11.2-6.5,15.5-11.2,4.3-4.7,7.6-10.2,10-16.5,2.3-6.3,3.5-13.1,3.5-20.2s-1.2-13.9-3.5-20.2c-2.3-6.3-5.7-11.9-10-16.5-4.3-4.7-9.5-8.4-15.5-11.2-6-2.8-12.8-4.2-20.3-4.2s-14.3,1.4-20.3,4.2c-6,2.8-11.2,6.5-15.5,11.2-4.3,4.7-7.6,10.2-10,16.5-2.3,6.3-3.5,13.1-3.5,20.2s1.2,13.9,3.5,20.2c2.3,6.3,5.7,11.9,10,16.5,4.3,4.7,9.5,8.4,15.5,11.2,6,2.8,12.8,4.2,20.3,4.2Z"/>
      <path class="st1" d="M693.7,627.8c-10,0-19.2-1.8-27.5-5.3-8.4-3.5-15.6-8.3-21.5-14.5-6-6.2-10.7-13.4-14-21.8-3.4-8.4-5.1-17.4-5.1-27.2s1.7-18.8,5.1-27.2c3.4-8.4,8.1-15.7,14-21.8,6-6.2,13.2-11,21.5-14.5,8.4-3.5,17.6-5.3,27.5-5.3s19.2,1.8,27.5,5.3c8.4,3.5,15.6,8.4,21.5,14.5,6,6.2,10.7,13.4,14,21.8,3.4,8.4,5.1,17.4,5.1,27.2s-1.7,18.8-5.1,27.2c-3.4,8.4-8.1,15.7-14,21.8-6,6.2-13.2,11-21.5,14.5-8.4,3.5-17.6,5.3-27.5,5.3ZM693.7,611.2c7.5,0,14.3-1.4,20.3-4.2,6-2.8,11.2-6.5,15.5-11.2,4.3-4.7,7.6-10.2,10-16.5,2.3-6.3,3.5-13.1,3.5-20.2s-1.2-13.9-3.5-20.2c-2.3-6.3-5.7-11.9-10-16.5-4.3-4.7-9.5-8.4-15.5-11.2-6-2.8-12.8-4.2-20.3-4.2s-14.3,1.4-20.3,4.2c-6,2.8-11.2,6.5-15.5,11.2-4.3,4.7-7.6,10.2-10,16.5-2.3,6.3-3.5,13.1-3.5,20.2s1.2,13.9,3.5,20.2c2.3,6.3,5.7,11.9,10,16.5,4.3,4.7,9.5,8.4,15.5,11.2,6,2.8,12.8,4.2,20.3,4.2Z"/>
      <path class="st1" d="M791.8,493.6h17.7v114.2h60.1v16.6h-77.8v-130.9Z"/>
      <path class="st1" d="M1008.1,627.8c-10,0-19.2-1.8-27.5-5.3-8.4-3.5-15.6-8.3-21.5-14.5-6-6.2-10.7-13.4-14-21.8-3.4-8.4-5.1-17.4-5.1-27.2s1.7-18.8,5.1-27.2c3.4-8.4,8.1-15.7,14-21.8,6-6.2,13.2-11,21.5-14.5,8.4-3.5,17.6-5.3,27.5-5.3s19.2,1.8,27.5,5.3c8.4,3.5,15.6,8.4,21.5,14.5,6,6.2,10.7,13.4,14,21.8,3.4,8.4,5.1,17.4,5.1,27.2s-1.7,18.8-5.1,27.2c-3.4,8.4-8.1,15.7-14,21.8-6,6.2-13.2,11-21.5,14.5-8.4,3.5-17.6,5.3-27.5,5.3ZM1008.1,611.2c7.5,0,14.3-1.4,20.3-4.2,6-2.8,11.2-6.5,15.5-11.2,4.3-4.7,7.6-10.2,10-16.5,2.3-6.3,3.5-13.1,3.5-20.2s-1.2-13.9-3.5-20.2c-2.3-6.3-5.7-11.9-10-16.5-4.3-4.7-9.5-8.4-15.5-11.2-6-2.8-12.8-4.2-20.3-4.2s-14.3,1.4-20.3,4.2c-6,2.8-11.2,6.5-15.5,11.2-4.3,4.7-7.6,10.2-10,16.5-2.3,6.3-3.5,13.1-3.5,20.2s1.2,13.9,3.5,20.2c2.3,6.3,5.7,11.9,10,16.5,4.3,4.7,9.5,8.4,15.5,11.2,6,2.8,12.8,4.2,20.3,4.2Z"/>
      <path class="st1" d="M1106.3,493.6h82.3v16.6h-64.5v41h60.1v16.6h-60.1v56.6h-17.7v-130.9Z"/>
      <path class="st1" d="M1303.6,568.6l-49.5-75.1h22.7l35.7,57.5,36.8-57.5h21.6l-49.5,75.1v55.8h-17.7v-55.8Z"/>
      <path class="st1" d="M1450.3,627.8c-10,0-19.2-1.8-27.5-5.3-8.4-3.5-15.6-8.3-21.5-14.5-6-6.2-10.7-13.4-14-21.8-3.4-8.4-5.1-17.4-5.1-27.2s1.7-18.8,5.1-27.2c3.4-8.4,8.1-15.7,14-21.8,6-6.2,13.2-11,21.5-14.5,8.4-3.5,17.6-5.3,27.5-5.3s19.2,1.8,27.5,5.3c8.4,3.5,15.6,8.4,21.5,14.5,6,6.2,10.7,13.4,14,21.8,3.4,8.4,5.1,17.4,5.1,27.2s-1.7,18.8-5.1,27.2c-3.4,8.4-8.1,15.7-14,21.8-6,6.2-13.2,11-21.5,14.5-8.4,3.5-17.6,5.3-27.5,5.3ZM1450.3,611.2c7.5,0,14.3-1.4,20.3-4.2,6-2.8,11.2-6.5,15.5-11.2,4.3-4.7,7.6-10.2,10-16.5,2.3-6.3,3.5-13.1,3.5-20.2s-1.2-13.9-3.5-20.2c-2.3-6.3-5.7-11.9-10-16.5-4.3-4.7-9.5-8.4-15.5-11.2-6-2.8-12.8-4.2-20.3-4.2s-14.3,1.4-20.3,4.2c-6,2.8-11.2,6.5-15.5,11.2-4.3,4.7-7.6,10.2-10,16.5-2.3,6.3-3.5,13.1-3.5,20.2s1.2,13.9,3.5,20.2c2.3,6.3,5.7,11.9,10,16.5,4.3,4.7,9.5,8.4,15.5,11.2,6,2.8,12.8,4.2,20.3,4.2Z"/>
      <path class="st1" d="M1660,551.3v64.5c-3.2,2-6.8,3.7-10.9,5.2-4.1,1.5-8.3,2.7-12.7,3.8-4.4,1-8.8,1.8-13.3,2.3-4.5.5-8.7.7-12.7.7-11.1,0-21-1.8-29.7-5.5-8.7-3.7-16-8.7-22-15-6-6.3-10.5-13.6-13.7-21.9-3.1-8.3-4.7-17.1-4.7-26.3s1.7-18.8,5.1-27.2c3.4-8.4,8.1-15.7,14-21.8,6-6.2,13.2-11,21.5-14.5,8.4-3.5,17.6-5.3,27.5-5.3s21.9,1.5,29.6,4.5c7.6,3,14,7.2,19.2,12.5l-12.6,13.5c-5.4-5.2-11.2-8.8-17.2-10.8-6-2-12.4-3.1-19-3.1s-14.3,1.4-20.3,4.2c-6,2.8-11.2,6.5-15.5,11.2-4.3,4.7-7.6,10.2-10,16.5-2.3,6.3-3.5,13.1-3.5,20.2s1.3,14.3,3.9,20.6c2.6,6.3,6.2,11.9,10.7,16.5,4.6,4.7,9.9,8.4,16.1,11,6.2,2.7,12.9,4,20.2,4s12.2-.6,17.8-1.8c5.6-1.2,10.4-2.9,14.3-5.1v-36.4h-29v-16.6h46.8Z"/>
      <path class="st1" d="M1737.8,493.6h16.1l56,130.9h-20.7l-13.1-32.4h-62.3l-12.9,32.4h-20.7l57.7-130.9ZM1769.6,576.6l-24.4-60.1h-.4l-24.8,60.1h49.5Z"/>
    </g>
  </g>
</svg>