<?xml version="1.0" encoding="UTF-8"?>
<svg id="Layer_1" xmlns="http://www.w3.org/2000/svg" version="1.1" viewBox="0 0 3662.4 306.1">
  <!-- Generator: Adobe Illustrator 30.3.0, SVG Export Plug-In . SVG Version: 2.1.3 Build 182)  -->
  <defs>
    <style>
      .st0 {
        fill: #fff;
      }

      .st1 {
        fill: #f39900;
      }
    </style>
  </defs>
  <path class="st0" d="M151,286.6c-8.4,11.7-22.7,18-37.8,18-24.6,0-46.9-11.7-46.9-53.1v-111.8h-11c-34.8,0-53.9-19.4-53.9-47.3s24.2-53.2,57.9-53.2,47.6,9.2,72.2,19.8c18,7.7,40,16.5,59,23.8C196.4,31.5,217.7,1.4,260.6,1.4s52.8,18,52.8,48.8-23.5,55-60.8,55-19.1-1.1-30.1-3.7v56.8c4.8-10.3,19.4-27.9,50.6-27.9s56.4,27.1,56.4,59.7v86.1c0,11,6.2,16.9,13.2,16.9s8.4-2.2,11.4-5.9l3.3,3.7c-6.2,8.1-17.6,13.6-30.1,13.6s-30.8-9.2-30.8-34.1v-88.7c0-27.1-8.4-42.9-31.5-42.9s-42.5,23.1-42.5,46.2v110.3h20.5v5.9h-74.4v-5.9h20.9V120.9c0-10.3,0-18.7.4-28.2-19.8-6.6-43.6-15.4-63-22.7-21.6-8.1-40.7-18.3-68.5-18.3S8,67.8,8,93.4s17.6,40.3,40,40.3,41-22.4,44.3-41.8l1.5-8.4h5.5v50.2h45.1v5.9h-45.1v121c0,22.7,12.5,32.6,25.7,32.6s16.5-3.7,22.7-9.9l3.3,3.3h0ZM222.5,93.4c10.3,2.9,20.5,5.5,30.1,5.5,34.1,0,54.6-19.1,54.6-47.3s-18.7-38.5-38.9-38.5c-35.2,0-45.8,27.5-45.8,64.1v16.1h0ZM518.2,176.3c0,34.5-31.9,49.5-64.9,49.5s-26.8-2.6-38.5-7.3c.7,54.3,26.8,76.2,56.1,76.2s31.9-5.9,47.3-20.5l3.3,4.4c-15,16.1-34.8,26-64.1,26s-77.7-29.7-77.7-84.7,28.2-89.4,78.4-89.4,60.1,19.4,60.1,45.8M414.8,212.9c10.6,2.9,21.3,4.4,30.1,4.4,22.7,0,39.2-10.3,39.2-40.3s-12.1-40.7-27.5-40.7-40.7,24.9-41.8,76.6M702.9,133.7c-11.4-10.6-22-29-22-52.4,0-37.4,24.2-70.4,68.9-70.4s72.9,36.3,72.9,81.4v66c4.8-10.3,19.4-27.9,50.6-27.9s56.4,27.1,56.4,59.7v86.1c0,11,6.2,16.9,13.2,16.9s8.4-2.2,11.4-5.9l3.3,3.7c-6.2,8.1-17.6,13.6-30.1,13.6s-30.8-9.2-30.8-34.1v-88.7c0-27.1-8.4-42.9-31.5-42.9s-42.5,23.1-42.5,46.2v110.3h20.5v5.9h-74.4v-5.9h20.9V83.2c0-38.8-13.2-62.7-46.2-62.7s-56.8,27.9-56.8,61.6,12.1,44,27.5,55.4c12.5,9.2,19.8,18,19.8,29.3s-9.2,21.3-19.4,21.3-15.4-4.4-17.6-7.3l24.2-26c-6.6-7.7-19.1-16.9-38.5-16.9s-38.5,11.4-38.5,27.9,14.3,27.1,40.7,35.5c37.4,12.1,55.3,27.1,55.3,51.7s-27.5,51.7-65.2,51.7-56.4-12.1-56.4-34.8,11-22.4,20.2-22.4,14.7,4.4,16.9,7.3l-24.9,26.8c10.6,10.6,27.1,15.4,41.4,15.4,23.1,0,42.9-11.7,42.9-30.1s-11.4-25.7-45.1-37c-30.8-10.3-49.5-23.5-49.5-49.5s26.4-49.8,60.1-49.8,16.9,1.1,22.4,3.3M1032,304.5c-35.2,0-51.3-19.1-51.3-44.7,0-42.5,53.9-50.6,82.1-50.6s11.7.4,15.7.4v-39.6c0-22.7-17.2-33.7-35.9-33.7s-27.9,6.2-35.2,13.9l20.9,35.2c-1.8,4-9.2,7.7-17.2,7.7s-22-6.6-22-22.4,22.7-40.3,58.6-40.3c53.2,0,63.8,26.8,63.8,52.4v93.5c0,11,6.2,16.9,13.2,16.9s8.4-2.2,11.4-5.9l3.3,3.7c-5.9,8.1-17.6,13.6-30.1,13.6s-23.8-5.1-28.2-18.7c-9.2,8.8-22.7,18.7-49.1,18.7M1078.5,215.1c-29.7,1.5-62.7,4-62.7,42.5s16.1,35.9,30.4,35.9,29-8.8,32.2-14.7v-63.8h.1ZM1207.5,263.9c0,20.9,10.3,29.3,20.5,29.3s13.2-3.3,18.3-9.9l2.9,3.3c-7.7,11.7-20.9,18-34.4,18-20.9,0-40.3-11.4-40.3-49.8V40.6h-20.9v-5.9h53.9v229.1h0ZM1322.6,304.5c-35.2,0-51.3-19.1-51.3-44.7,0-42.5,53.9-50.6,82.1-50.6s11.7.4,15.7.4v-39.6c0-22.7-17.2-33.7-35.9-33.7s-27.8,6.2-35.2,13.9l20.9,35.2c-1.8,4-9.2,7.7-17.2,7.7s-22-6.6-22-22.4,22.7-40.3,58.6-40.3c53.1,0,63.8,26.8,63.8,52.4v93.5c0,11,6.2,16.9,13.2,16.9s8.4-2.2,11.4-5.9l3.3,3.7c-5.9,8.1-17.6,13.6-30.1,13.6s-23.8-5.1-28.2-18.7c-9.2,8.8-22.7,18.7-49.1,18.7M1369.2,215.1c-29.7,1.5-62.7,4-62.7,42.5s16.1,35.9,30.4,35.9,29-8.8,32.2-14.7v-63.8h0ZM1461.5,284c0-11.4,8.4-20.5,20.9-20.5s20.9,9.2,20.9,20.5-8.4,20.5-20.9,20.5-20.9-9.2-20.9-20.5"/>
  <g>
    <path class="st1" d="M1610,268c3.8,5.8,8.7,10,14.7,12.7s12.1,4.1,18.5,4.1,7.2-.6,10.8-1.7c3.7-1.1,7-2.8,10.1-5,3-2.2,5.5-4.9,7.4-8.2,1.9-3.2,2.9-7,2.9-11.3s-1.9-10.7-5.8-13.8c-3.8-3.2-8.6-5.8-14.3-8-5.7-2.1-11.9-4.2-18.6-6.2-6.7-2-12.9-4.8-18.6-8.3-5.7-3.5-10.4-8.3-14.3-14.3-3.8-6-5.8-14-5.8-24.2s1-9.4,3-14.6c2-5.2,5.1-9.9,9.4-14.2,4.3-4.3,9.8-7.9,16.5-10.7,6.7-2.9,14.8-4.3,24.2-4.3s16.7,1.2,24.6,3.5c7.8,2.4,14.7,7.2,20.6,14.4l-17.3,15.7c-2.7-4.1-6.4-7.4-11.3-10-4.9-2.5-10.4-3.8-16.6-3.8s-10.8.8-14.7,2.3c-3.9,1.5-7,3.5-9.4,6-2.4,2.4-4,5.1-5,7.9-1,2.8-1.4,5.4-1.4,7.7,0,6.6,1.9,11.7,5.8,15.3,3.8,3.5,8.6,6.4,14.3,8.6,5.7,2.2,11.9,4.2,18.6,6,6.7,1.8,12.9,4.2,18.6,7.4,5.7,3.2,10.4,7.4,14.3,12.8,3.8,5.4,5.8,12.8,5.8,22.2s-1.4,14.3-4.3,20.4c-2.9,6-6.7,11.1-11.6,15.3-4.9,4.1-10.6,7.3-17.3,9.5-6.6,2.2-13.7,3.3-21.2,3.3s-19.5-1.8-28.5-5.3-16.1-9-21.5-16.4l17.5-15v.2Z"/>
    <path class="st1" d="M1842.7,178c-4.4-5.8-10-10.2-16.8-13.3-6.8-3.1-13.8-4.6-21-4.6s-16.9,1.7-24,5c-7.2,3.3-13.3,7.9-18.4,13.6-5.1,5.8-9,12.5-11.8,20.2-2.8,7.7-4.2,16-4.2,24.9s1.3,16.1,4,23.4c2.7,7.4,6.5,13.9,11.5,19.5s11.1,10,18.4,13.3c7.2,3.2,15.4,4.9,24.6,4.9s16.9-1.8,23.7-5.5c6.8-3.7,12.5-8.8,17.3-15.5l17.9,13.5c-1.2,1.6-3.2,3.9-6.2,7-3,3-6.9,6-11.7,9.1-4.9,3-10.7,5.7-17.6,8-6.9,2.3-14.8,3.4-23.8,3.4s-23.6-2.4-33.5-7.1c-10-4.7-18.4-10.9-25.4-18.6s-12.4-16.3-16-26c-3.7-9.7-5.5-19.4-5.5-29.3s2-23.3,6-33.5,9.5-19.1,16.7-26.5c7.2-7.4,15.7-13.2,25.8-17.4,10-4.1,21.1-6.2,33.2-6.2s20.5,2,30.4,6c10,4,18.1,10.1,24.4,18.4l-17.7,13.5-.3-.2Z"/>
    <path class="st1" d="M1894.7,144.1h21.2v65h81.2v-65h21.2v156.6h-21.2v-71.7h-81.2v71.7h-21.2v-156.6Z"/>
    <path class="st1" d="M2135.8,304.7c-11.9,0-22.9-2.1-33-6.3-10-4.2-18.6-10-25.8-17.4-7.2-7.4-12.8-16.1-16.8-26.1-4.1-10-6.1-20.9-6.1-32.5s2-22.5,6.1-32.5,9.7-18.7,16.8-26.1c7.2-7.4,15.7-13.2,25.8-17.4,10-4.2,21-6.3,33-6.3s22.9,2.1,33,6.3c10,4.2,18.6,10,25.8,17.4,7.2,7.4,12.8,16.1,16.8,26.1,4.1,10,6.1,20.9,6.1,32.5s-2,22.5-6.1,32.5-9.7,18.7-16.8,26.1c-7.2,7.4-15.7,13.2-25.8,17.4-10,4.2-21,6.3-33,6.3ZM2135.8,284.8c9,0,17.1-1.7,24.3-5,7.2-3.3,13.4-7.8,18.6-13.4,5.2-5.6,9.1-12.2,11.9-19.8,2.8-7.6,4.2-15.7,4.2-24.2s-1.4-16.6-4.2-24.2c-2.8-7.6-6.8-14.2-11.9-19.8-5.2-5.6-11.4-10.1-18.6-13.4-7.2-3.3-15.3-5-24.3-5s-17.1,1.7-24.3,5c-7.2,3.3-13.4,7.8-18.6,13.4-5.2,5.6-9.1,12.2-11.9,19.8-2.8,7.6-4.2,15.7-4.2,24.2s1.4,16.6,4.2,24.2c2.8,7.6,6.8,14.2,11.9,19.8,5.2,5.6,11.4,10.1,18.6,13.4,7.2,3.3,15.3,5,24.3,5Z"/>
    <path class="st1" d="M2325.2,304.7c-11.9,0-22.9-2.1-33-6.3-10-4.2-18.6-10-25.8-17.4-7.2-7.4-12.8-16.1-16.8-26.1-4.1-10-6.1-20.9-6.1-32.5s2-22.5,6.1-32.5,9.7-18.7,16.8-26.1c7.2-7.4,15.7-13.2,25.8-17.4,10-4.2,21-6.3,33-6.3s22.9,2.1,33,6.3c10,4.2,18.6,10,25.8,17.4,7.2,7.4,12.8,16.1,16.8,26.1,4.1,10,6.1,20.9,6.1,32.5s-2,22.5-6.1,32.5-9.7,18.7-16.8,26.1c-7.2,7.4-15.7,13.2-25.8,17.4-10,4.2-21,6.3-33,6.3ZM2325.2,284.8c9,0,17.1-1.7,24.3-5,7.2-3.3,13.4-7.8,18.6-13.4,5.2-5.6,9.1-12.2,11.9-19.8,2.8-7.6,4.2-15.7,4.2-24.2s-1.4-16.6-4.2-24.2c-2.8-7.6-6.8-14.2-11.9-19.8-5.2-5.6-11.4-10.1-18.6-13.4-7.2-3.3-15.3-5-24.3-5s-17.1,1.7-24.3,5c-7.2,3.3-13.4,7.8-18.6,13.4-5.2,5.6-9.1,12.2-11.9,19.8-2.8,7.6-4.2,15.7-4.2,24.2s1.4,16.6,4.2,24.2c2.8,7.6,6.8,14.2,11.9,19.8,5.2,5.6,11.4,10.1,18.6,13.4,7.2,3.3,15.3,5,24.3,5Z"/>
    <path class="st1" d="M2442.7,144.1h21.2v136.7h71.9v19.9h-93.1v-156.6h0Z"/>
    <path class="st1" d="M2701.5,304.7c-11.9,0-22.9-2.1-33-6.3-10-4.2-18.6-10-25.8-17.4-7.2-7.4-12.8-16.1-16.8-26.1-4.1-10-6.1-20.9-6.1-32.5s2-22.5,6.1-32.5,9.7-18.7,16.8-26.1c7.2-7.4,15.7-13.2,25.8-17.4,10-4.2,21-6.3,33-6.3s22.9,2.1,33,6.3c10,4.2,18.6,10,25.8,17.4,7.2,7.4,12.8,16.1,16.8,26.1,4.1,10,6.1,20.9,6.1,32.5s-2,22.5-6.1,32.5-9.7,18.7-16.8,26.1c-7.2,7.4-15.7,13.2-25.8,17.4-10,4.2-21,6.3-33,6.3ZM2701.5,284.8c9,0,17.1-1.7,24.3-5,7.2-3.3,13.4-7.8,18.6-13.4,5.2-5.6,9.1-12.2,11.9-19.8,2.8-7.6,4.2-15.7,4.2-24.2s-1.4-16.6-4.2-24.2c-2.8-7.6-6.8-14.2-11.9-19.8-5.2-5.6-11.4-10.1-18.6-13.4-7.2-3.3-15.3-5-24.3-5s-17.1,1.7-24.3,5c-7.2,3.3-13.4,7.8-18.6,13.4-5.2,5.6-9.1,12.2-11.9,19.8-2.8,7.6-4.2,15.7-4.2,24.2s1.4,16.6,4.2,24.2c2.8,7.6,6.8,14.2,11.9,19.8,5.2,5.6,11.4,10.1,18.6,13.4,7.2,3.3,15.3,5,24.3,5Z"/>
    <path class="st1" d="M2818.9,144.1h98.4v19.9h-77.2v49.1h71.9v19.9h-71.9v67.7h-21.2v-156.6Z"/>
    <path class="st1" d="M3055,233.9l-59.3-89.8h27.2l42.7,68.8,44-68.8h25.9l-59.3,89.8v66.8h-21.2v-66.8h0Z"/>
    <path class="st1" d="M3230.6,304.7c-11.9,0-22.9-2.1-33-6.3-10-4.2-18.6-10-25.8-17.4-7.2-7.4-12.8-16.1-16.8-26.1-4.1-10-6.1-20.9-6.1-32.5s2-22.5,6.1-32.5,9.7-18.7,16.8-26.1c7.2-7.4,15.7-13.2,25.8-17.4,10-4.2,21-6.3,33-6.3s22.9,2.1,33,6.3c10,4.2,18.6,10,25.8,17.4,7.2,7.4,12.8,16.1,16.8,26.1,4.1,10,6.1,20.9,6.1,32.5s-2,22.5-6.1,32.5-9.7,18.7-16.8,26.1c-7.2,7.4-15.7,13.2-25.8,17.4-10,4.2-21,6.3-33,6.3ZM3230.6,284.8c9,0,17.1-1.7,24.3-5,7.2-3.3,13.4-7.8,18.6-13.4,5.2-5.6,9.1-12.2,11.9-19.8,2.8-7.6,4.2-15.7,4.2-24.2s-1.4-16.6-4.2-24.2c-2.8-7.6-6.8-14.2-11.9-19.8-5.2-5.6-11.4-10.1-18.6-13.4-7.2-3.3-15.3-5-24.3-5s-17.1,1.7-24.3,5c-7.2,3.3-13.4,7.8-18.6,13.4-5.2,5.6-9.1,12.2-11.9,19.8-2.8,7.6-4.2,15.7-4.2,24.2s1.4,16.6,4.2,24.2c2.8,7.6,6.8,14.2,11.9,19.8,5.2,5.6,11.4,10.1,18.6,13.4,7.2,3.3,15.3,5,24.3,5Z"/>
    <path class="st1" d="M3481.5,213.1v77.2c-3.8,2.4-8.2,4.4-13.1,6.2-4.9,1.8-9.9,3.3-15.2,4.5-5.2,1.3-10.5,2.2-15.9,2.8-5.4.6-10.4.9-15.2.9-13.3,0-25.1-2.2-35.5-6.6s-19.2-10.4-26.3-17.9c-7.2-7.5-12.6-16.3-16.4-26.2-3.8-10-5.6-20.5-5.6-31.5s2-22.5,6.1-32.5,9.7-18.7,16.8-26.1c7.2-7.4,15.7-13.2,25.8-17.4,10-4.2,21-6.3,33-6.3s26.2,1.8,35.4,5.4c9.1,3.6,16.8,8.6,23,14.9l-15,16.1c-6.5-6.2-13.3-10.5-20.6-12.9-7.2-2.4-14.8-3.7-22.8-3.7s-17.1,1.7-24.3,5c-7.2,3.3-13.4,7.8-18.6,13.4-5.2,5.6-9.1,12.2-11.9,19.8-2.8,7.6-4.2,15.7-4.2,24.2s1.5,17.1,4.6,24.7c3.1,7.6,7.4,14.2,12.8,19.8,5.5,5.6,11.9,10,19.2,13.2,7.4,3.2,15.4,4.8,24.1,4.8s14.6-.7,21.3-2.1c6.7-1.4,12.4-3.4,17.1-6.1v-43.6h-34.7v-19.9h56.1Z"/>
    <path class="st1" d="M3574.6,144.1h19.2l67,156.6h-24.8l-15.7-38.7h-74.6l-15.5,38.7h-24.8l69-156.6h.2ZM3612.7,243.4l-29.2-71.9h-.4l-29.6,71.9h59.3-.1Z"/>
  </g>
</svg>